<svg width="30" height="30" viewBox="0 0 30 30" fill="none" xmlns="http://www.w3.org/2000/svg">
<path d="M29.9999 15C29.9999 15.9585 29.5021 16.7545 29.0627 17.4561C28.8028 17.8719 28.5572 18.264 28.4651 18.6077C28.3664 18.978 28.3818 19.4569 28.3983 19.9642C28.4249 20.7785 28.455 21.7016 27.9914 22.5018C27.5219 23.3138 26.7011 23.7502 25.9771 24.1352C25.5347 24.3703 25.1172 24.5923 24.855 24.8551C24.5922 25.1173 24.3702 25.5348 24.1351 25.9772C23.7501 26.7012 23.3137 27.522 22.5017 27.9921C21.7015 28.4551 20.7784 28.425 19.9641 28.3984C19.4568 28.3819 18.9779 28.3665 18.6076 28.4652C18.2645 28.5573 17.8718 28.803 17.456 29.0628C16.7544 29.5022 15.9584 30 14.9999 30H14.9934L12.9055 14.501L14.9934 0H14.9999C15.9584 0 16.7544 0.497835 17.456 0.937205C17.8718 1.19705 18.2645 1.44272 18.6076 1.53484C18.9779 1.63346 19.4568 1.61811 19.9641 1.60157C20.7784 1.575 21.7015 1.54488 22.5017 2.00787C23.3137 2.47795 23.7501 3.29882 24.1351 4.02283C24.3702 4.46516 24.5922 4.88268 24.855 5.14488C25.1172 5.40768 25.5347 5.62972 25.9771 5.86476C26.7011 6.2498 27.5219 6.68622 27.992 7.49823C28.455 8.29843 28.4249 9.22146 28.3983 10.0358C28.3818 10.5431 28.3664 11.022 28.4651 11.3923C28.5572 11.7354 28.8028 12.1281 29.0627 12.5433C29.5021 13.2455 29.9999 14.0415 29.9999 15Z" fill="#00875A"/>
<path d="M14.9935 0V30C14.038 29.9976 13.2437 29.501 12.5439 29.0628C12.1281 28.803 11.7354 28.5573 11.3923 28.4652C11.022 28.3665 10.5431 28.3819 10.0358 28.3984C9.22146 28.425 8.29842 28.4551 7.49823 27.9921C6.68622 27.522 6.2498 26.7012 5.86476 25.9772C5.62972 25.5348 5.40768 25.1173 5.14488 24.8551C4.88268 24.5923 4.46516 24.3703 4.02283 24.1352C3.29882 23.7502 2.47795 23.3138 2.00787 22.5018C1.54488 21.7016 1.575 20.7785 1.60157 19.9642C1.61811 19.4569 1.63346 18.978 1.53484 18.6077C1.44272 18.2646 1.19705 17.8719 0.937205 17.4567C0.497835 16.7545 0 15.9585 0 15C0 14.0415 0.497835 13.2455 0.937205 12.5439C1.19705 12.1281 1.44272 11.736 1.53484 11.3923C1.63346 11.022 1.61811 10.5431 1.60157 10.0358C1.575 9.22146 1.54488 8.29843 2.00846 7.49823C2.47795 6.68622 3.29882 6.2498 4.02283 5.86476C4.46516 5.62972 4.88268 5.40768 5.14488 5.14488C5.40768 4.88268 5.62972 4.46516 5.86476 4.02283C6.2498 3.29882 6.68622 2.47795 7.49823 2.00787C8.29842 1.54488 9.22146 1.575 10.0358 1.60157C10.5431 1.61811 11.022 1.63346 11.3923 1.53484C11.7354 1.44272 12.1281 1.19705 12.5439 0.937205C13.2437 0.499016 14.038 0.0023622 14.9935 0V0Z" fill="#36B37E"/>
<path d="M26.2842 15.0001C26.2842 21.2221 21.222 26.2843 14.9999 26.2843H14.9934L14.557 25.651L14.9934 24.5127H14.9999C20.2452 24.5127 24.5125 20.2453 24.5125 15.0001C24.5125 9.7548 20.2452 5.48747 14.9999 5.48747H14.9934L14.2527 4.77007L14.9934 3.71582H14.9999C21.222 3.71582 26.2842 8.77803 26.2842 15.0001Z" fill="white"/>
<path d="M20.338 12.5748L14.9935 17.7055L14.5571 16.7719L14.9935 15.2494L19.1109 11.2969L20.338 12.5748Z" fill="white"/>
<path d="M14.9934 15.2488V17.7049L13.3275 19.3041L9.64893 15.6262L10.9021 14.373L13.3529 16.8238L14.9934 15.2488Z" fill="white"/>
<path d="M14.9936 5.48747V3.71582C8.77448 3.71936 3.71582 8.78039 3.71582 15.0001C3.71582 21.2198 8.77448 26.2808 14.9936 26.2843V24.5127C9.75125 24.5091 5.48747 20.243 5.48747 15.0001C5.48747 9.75716 9.75125 5.49102 14.9936 5.48747Z" fill="white"/>
</svg>
